<?xml version="1.0" standalone="no"?>
<!DOCTYPE svg PUBLIC "-//W3C//DTD SVG 20010904//EN"
 "http://www.w3.org/TR/2001/REC-SVG-20010904/DTD/svg10.dtd">
<svg version="1.0" xmlns="http://www.w3.org/2000/svg"
 width="512.000000pt" height="512.000000pt" viewBox="0 0 512.000000 512.000000"
 preserveAspectRatio="xMidYMid meet">

<g transform="translate(0.000000,512.000000) scale(0.100000,-0.100000)"
fill="#000000" stroke="none">
<path d="M2426 5108 c-164 -22 -310 -161 -345 -326 -8 -36 -11 -330 -11 -942
l0 -890 -180 0 -180 0 0 -150 0 -150 780 0 780 0 0 150 0 150 -180 0 -180 0 0
893 c0 959 1 948 -51 1049 -29 58 -109 140 -166 171 -79 42 -173 58 -267 45z"/>
<path d="M3992 5108 c-6 -7 -91 -154 -191 -325 l-180 -313 184 -317 183 -318
378 0 378 0 183 318 184 317 -188 325 -187 325 -367 0 c-281 0 -369 -3 -377
-12z m528 -638 l0 -150 -150 0 -150 0 0 150 0 150 150 0 150 0 0 -150z"/>
<path d="M320 5073 c-131 -87 -233 -222 -286 -378 -25 -72 -28 -94 -28 -215 0
-121 3 -143 28 -215 54 -159 170 -309 299 -385 l57 -35 0 -1285 0 -1285 -57
-35 c-129 -76 -245 -226 -299 -385 -25 -72 -28 -94 -28 -215 0 -121 3 -143 28
-215 54 -158 159 -296 288 -379 32 -20 59 -36 62 -36 2 0 6 87 8 193 3 183 4
195 29 248 32 68 83 120 152 156 44 23 64 27 137 27 78 1 90 -2 148 -33 68
-37 110 -82 145 -158 20 -43 22 -67 25 -240 2 -106 7 -193 11 -193 4 0 40 22
78 50 126 88 221 217 270 365 24 70 27 96 27 215 0 126 -2 141 -31 223 -57
160 -152 285 -281 367 l-71 45 0 1285 0 1285 71 45 c129 82 224 207 281 367
29 82 31 97 31 223 0 119 -3 145 -27 215 -49 148 -144 277 -270 365 -38 28
-74 50 -78 50 -4 0 -9 -87 -11 -192 -3 -184 -4 -196 -29 -249 -32 -68 -83
-120 -152 -156 -45 -23 -64 -27 -137 -27 -72 0 -93 4 -135 26 -69 36 -123 91
-154 157 -25 53 -26 66 -29 249 -2 105 -7 192 -11 192 -3 0 -31 -17 -61 -37z"/>
<path d="M3550 3190 l0 -150 150 0 150 0 0 150 0 150 -150 0 -150 0 0 -150z"/>
<path d="M4187 3333 c-4 -3 -7 -71 -7 -150 l0 -143 150 0 150 0 0 150 0 150
-143 0 c-79 0 -147 -3 -150 -7z"/>
<path d="M4820 3190 l0 -150 150 0 150 0 0 150 0 150 -150 0 -150 0 0 -150z"/>
<path d="M4477 2493 c-4 -3 -7 -39 -7 -80 l0 -73 -360 0 -360 0 0 -320 0 -320
360 0 359 0 3 -77 3 -78 318 -3 317 -2 0 480 0 480 -313 0 c-173 0 -317 -3
-320 -7z"/>
<path d="M2170 1665 l0 -684 -101 -142 c-56 -79 -103 -147 -104 -153 -2 -6 56
-162 128 -346 l132 -335 265 0 264 0 133 339 133 338 -105 150 -105 149 0 684
0 685 -320 0 -320 0 0 -685z"/>
<path d="M3750 480 l0 -480 315 0 315 0 0 80 0 80 365 0 365 0 0 320 0 320
-365 0 -365 0 0 80 0 80 -315 0 -315 0 0 -480z"/>
</g>
</svg>
